# xmcd CD database file
#
# Track frame offsets:
#	150
#	16157
#	31575
#	47595
#
# Disc length: 838 seconds
#
# Revision: 2
# Processed by: cddbd v1.5.1PL0 Copyright (c) Steve Scherf et al.
# Submitted via: CDex 1.51
#
DISCID=1e034404
DTITLE=川澄綾子 - Love Love!Chuっ Chuっ!
DYEAR=2005
DGENRE=Anime
TTITLE0=Love Love!Chuっ Chuっ!
TTITLE1=愛の子猫
TTITLE2=Love Love! Chuっ Chuっ! 〜カラオケ〜
TTITLE3=愛の子猫 〜カラオケ〜
EXTD=YEAR: 2005
EXTT0=
EXTT1=
EXTT2=
EXTT3=
PLAYORDER=
